<svg width="73" height="50" viewBox="0 0 73 50" fill="none" xmlns="http://www.w3.org/2000/svg">
<path d="M58.7819 13.9508V13.5342H58.3653H53.0509H52.6343V13.9508V36.036V36.4526H53.0509H58.3653H58.7819V36.036V13.9508ZM19.246 36.4989H19.6627V36.0822V13.9332V13.5165H19.246H14.0483H13.6317V13.9332V36.0822V36.4989H14.0483H19.246ZM71.8627 49.5833H0.416667V0.416667H71.8627V49.5833ZM36.1906 37.1599C39.4185 37.1571 42.5129 35.8707 44.7932 33.5838C47.0735 31.2969 48.353 28.1968 48.3502 24.9655C48.3475 21.7342 47.0628 18.6363 44.7787 16.3532C42.4945 14.0701 39.3979 12.7889 36.1702 12.7917C34.5719 12.793 32.9896 13.1095 31.5136 13.7231C30.0375 14.3367 28.6967 15.2354 27.5676 16.3677C26.4385 17.5001 25.5433 18.844 24.933 20.3228C24.3226 21.8015 24.0092 23.3861 24.0106 24.986C24.0119 26.586 24.328 28.17 24.9408 29.6477C25.5536 31.1254 26.4511 32.4678 27.5821 33.5983C28.7131 34.7288 30.0555 35.6252 31.5325 36.2363C33.0096 36.8474 34.5924 37.1612 36.1906 37.1599Z" stroke="black" stroke-width="0.833333"/>
</svg>
