<svg width="73" height="50" viewBox="0 0 73 50" fill="none" xmlns="http://www.w3.org/2000/svg">
<path d="M58.8528 13.9508V13.5342H58.4362H53.1154H52.6987V13.9508V36.036V36.4526H53.1154H58.4362H58.8528V36.036V13.9508ZM19.2694 36.4989H19.6861V36.0822V13.9332V13.5165H19.2694H14.0654H13.6487V13.9332V36.0822V36.4989H14.0654H19.2694ZM71.9505 49.5833H0.416667V0.416667H71.9505V49.5833ZM36.2346 37.1599C39.466 37.1571 42.564 35.8709 44.8471 33.584C47.1301 31.2971 48.4112 28.1969 48.4084 24.9655C48.4057 21.7341 47.1194 18.6361 44.8325 16.353C42.5456 14.07 39.4455 12.7889 36.2141 12.7917C34.614 12.793 33.0299 13.1095 31.5522 13.7231C30.0745 14.3366 28.7321 15.2352 27.6016 16.3676C26.4712 17.4999 25.5748 18.8438 24.9638 20.3226C24.3527 21.8014 24.0389 23.386 24.0402 24.986C24.0416 26.5861 24.3581 28.1702 24.9716 29.6479C25.5852 31.1256 26.4838 32.468 27.6161 33.5985C28.7485 34.7289 30.0924 35.6253 31.5712 36.2363C33.0499 36.8474 34.6346 37.1612 36.2346 37.1599Z" stroke="white" stroke-width="0.833333"/>
<path d="M29.8778 24.8921C29.902 21.3184 32.6913 18.6349 36.3311 18.6768C38.0104 18.6899 39.6158 19.3696 40.794 20.5664C41.9722 21.7632 42.6267 23.379 42.6136 25.0584C42.6004 26.7378 41.9207 28.3431 40.7239 29.5213C39.5271 30.6995 37.9113 31.354 36.2319 31.3409C32.623 31.3607 29.8514 28.5494 29.8778 24.8921Z" fill="white"/>
</svg>
