<svg width="40" height="40" viewBox="0 0 40 40" fill="none" xmlns="http://www.w3.org/2000/svg">
<rect opacity="0.1" width="40" height="40" rx="4" fill="#2F3337"/>
<path fill-rule="evenodd" clip-rule="evenodd" d="M20.0016 9.3335C17.1047 9.3335 16.7411 9.34616 15.6033 9.39794C14.4678 9.44994 13.6926 9.62972 13.0144 9.8935C12.3128 10.1659 11.7177 10.5304 11.1248 11.1235C10.5315 11.7164 10.167 12.3115 9.89371 13.0129C9.62926 13.6913 9.44926 14.4667 9.39815 15.6018C9.34726 16.7396 9.33392 17.1034 9.33392 20.0003C9.33392 22.8972 9.34681 23.2596 9.39837 24.3974C9.45059 25.533 9.63037 26.3081 9.89393 26.9863C10.1666 27.6879 10.531 28.283 11.1242 28.8759C11.7168 29.4693 12.312 29.8346 13.0131 30.107C13.6917 30.3708 14.4671 30.5506 15.6024 30.6026C16.7402 30.6544 17.1036 30.6671 20.0003 30.6671C22.8974 30.6671 23.2599 30.6544 24.3976 30.6026C25.5332 30.5506 26.3092 30.3708 26.9879 30.107C27.6892 29.8346 28.2835 29.4693 28.8761 28.8759C29.4695 28.283 29.8339 27.6879 30.1073 26.9866C30.3695 26.3081 30.5495 25.5328 30.6028 24.3977C30.6539 23.2599 30.6673 22.8972 30.6673 20.0003C30.6673 17.1034 30.6539 16.7398 30.6028 15.602C30.5495 14.4664 30.3695 13.6913 30.1073 13.0131C29.8339 12.3115 29.4695 11.7164 28.8761 11.1235C28.2828 10.5302 27.6895 10.1657 26.9872 9.8935C26.3072 9.62972 25.5317 9.44994 24.3961 9.39794C23.2583 9.34616 22.8961 9.3335 19.9983 9.3335H20.0016ZM19.0446 11.2557C19.3286 11.2553 19.6455 11.2557 20.0015 11.2557C22.8496 11.2557 23.1871 11.2659 24.3118 11.317C25.3518 11.3646 25.9163 11.5384 26.2923 11.6844C26.7901 11.8777 27.145 12.1088 27.5181 12.4822C27.8914 12.8555 28.1225 13.2111 28.3163 13.7088C28.4623 14.0844 28.6363 14.6489 28.6836 15.6889C28.7347 16.8133 28.7459 17.1511 28.7459 19.9978C28.7459 22.8445 28.7347 23.1823 28.6836 24.3067C28.6361 25.3467 28.4623 25.9112 28.3163 26.2868C28.123 26.7845 27.8914 27.139 27.5181 27.5121C27.1447 27.8854 26.7903 28.1166 26.2923 28.3099C25.9167 28.4566 25.3518 28.6299 24.3118 28.6774C23.1874 28.7286 22.8496 28.7397 20.0015 28.7397C17.1533 28.7397 16.8157 28.7286 15.6913 28.6774C14.6513 28.6294 14.0868 28.4557 13.7106 28.3097C13.2128 28.1163 12.8572 27.8852 12.4839 27.5119C12.1106 27.1385 11.8795 26.7839 11.6857 26.2859C11.5397 25.9103 11.3657 25.3459 11.3183 24.3058C11.2672 23.1814 11.257 22.8436 11.257 19.9951C11.257 17.1467 11.2672 16.8107 11.3183 15.6862C11.3659 14.6462 11.5397 14.0817 11.6857 13.7057C11.879 13.208 12.1106 12.8524 12.4839 12.4791C12.8572 12.1057 13.2128 11.8746 13.7106 11.6808C14.0866 11.5342 14.6513 11.3608 15.6913 11.313C16.6753 11.2686 17.0566 11.2553 19.0446 11.253V11.2557ZM25.6954 13.0268C24.9887 13.0268 24.4154 13.5995 24.4154 14.3064C24.4154 15.0131 24.9887 15.5864 25.6954 15.5864C26.4021 15.5864 26.9754 15.0131 26.9754 14.3064C26.9754 13.5997 26.4021 13.0268 25.6954 13.0268ZM20.0016 14.5224C16.9765 14.5224 14.5238 16.9751 14.5238 20.0002C14.5238 23.0254 16.9765 25.477 20.0016 25.477C23.0268 25.477 25.4786 23.0254 25.4786 20.0002C25.4786 16.9751 23.0268 14.5224 20.0016 14.5224ZM20.0016 16.4447C21.9651 16.4447 23.5572 18.0364 23.5572 20.0002C23.5572 21.9638 21.9651 23.5558 20.0016 23.5558C18.0378 23.5558 16.446 21.9638 16.446 20.0002C16.446 18.0364 18.0378 16.4447 20.0016 16.4447Z" fill="#2F3337"/>
</svg>
