<svg width="41" height="40" viewBox="0 0 41 40" fill="none" xmlns="http://www.w3.org/2000/svg">
<rect opacity="0.1" x="0.00012207" width="40" height="40" rx="4" fill="#2F3337"/>
<path fill-rule="evenodd" clip-rule="evenodd" d="M19.7343 16.2563L19.7763 16.9483L19.0768 16.8636C16.5307 16.5387 14.3064 15.4371 12.4178 13.5869L11.4944 12.6689L11.2566 13.3468C10.753 14.858 11.0748 16.454 12.124 17.5274C12.6836 18.1205 12.5577 18.2053 11.5924 17.8522C11.2566 17.7392 10.9628 17.6545 10.9349 17.6968C10.8369 17.7957 11.1727 19.0809 11.4385 19.5894C11.8022 20.2955 12.5437 20.9876 13.3551 21.3972L14.0406 21.722L13.2292 21.7361C12.4457 21.7361 12.4178 21.7502 12.5017 22.0468C12.7815 22.9649 13.8867 23.9394 15.1178 24.3631L15.9851 24.6597L15.2297 25.1116C14.1105 25.7613 12.7955 26.1285 11.4805 26.1567C10.8509 26.1709 10.3333 26.2274 10.3333 26.2697C10.3333 26.411 12.04 27.2019 13.0333 27.5126C16.0131 28.4306 19.5525 28.0351 22.2105 26.4674C24.0991 25.3517 25.9877 23.1343 26.869 20.9876C27.3447 19.8436 27.8203 17.7533 27.8203 16.7506C27.8203 16.1009 27.8623 16.0162 28.6457 15.2394C29.1073 14.7874 29.541 14.2931 29.625 14.1519C29.7649 13.8835 29.7509 13.8835 29.0374 14.1236C27.8483 14.5473 27.6804 14.4908 28.268 13.8553C28.7016 13.4033 29.2193 12.5842 29.2193 12.3441C29.2193 12.3017 29.0094 12.3723 28.7716 12.4994C28.5198 12.6407 27.9602 12.8525 27.5405 12.9796L26.7851 13.2197L26.0996 12.7537C25.7219 12.4994 25.1903 12.217 24.9105 12.1322C24.197 11.9345 23.1058 11.9627 22.4623 12.1887C20.7136 12.8243 19.6084 14.4626 19.7343 16.2563Z" fill="#2F3337"/>
</svg>
