<svg width="40" height="40" viewBox="0 0 40 40" fill="none" xmlns="http://www.w3.org/2000/svg">
<rect opacity="0.1" width="40" height="40" rx="4" fill="#2F3337"/>
<path fill-rule="evenodd" clip-rule="evenodd" d="M28.3347 13.1248C29.2527 13.3767 29.9756 14.1188 30.2209 15.0613C30.6667 16.7695 30.6667 20.3337 30.6667 20.3337C30.6667 20.3337 30.6667 23.8977 30.2209 25.606C29.9756 26.5485 29.2527 27.2907 28.3347 27.5427C26.6712 28.0003 20 28.0003 20 28.0003C20 28.0003 13.3289 28.0003 11.6653 27.5427C10.7473 27.2907 10.0244 26.5485 9.77907 25.606C9.33337 23.8977 9.33337 20.3337 9.33337 20.3337C9.33337 20.3337 9.33337 16.7695 9.77907 15.0613C10.0244 14.1188 10.7473 13.3767 11.6653 13.1248C13.3289 12.667 20 12.667 20 12.667C20 12.667 26.6712 12.667 28.3347 13.1248ZM18.0001 17.3336V24.0003L23.3334 20.6671L18.0001 17.3336Z" fill="#2F3337"/>
</svg>
